<svg width="134" height="40" viewBox="0 0 134 40" fill="none" xmlns="http://www.w3.org/2000/svg">
<path fill-rule="evenodd" clip-rule="evenodd" d="M84.1042 12.227L81.9253 8.57296L78.0578 10.4L75.879 6.73512L72.0115 8.57296L69.8435 4.89729L65.976 6.73512L63.7972 3.07026L59.9297 4.9081L57.7617 1.23242L53.8833 3.07026L45.6799 29.5784L55.6482 32.6054C56.0237 31.4106 56.8175 30.3885 57.8861 29.7238C58.9548 29.0591 60.2278 28.7957 61.4751 28.9811C62.7224 29.1665 63.8617 29.7885 64.6872 30.7347C65.5126 31.681 65.9698 32.889 65.976 34.1405V34.2486C65.9978 34.7243 65.9433 35.2 65.8017 35.6757L75.9334 38.7567L84.1042 12.227Z" fill="#D61920"/>
<path fill-rule="evenodd" clip-rule="evenodd" d="M54.2319 27.3944C53.9799 27.3531 53.7512 27.2234 53.5873 27.0291C53.4234 26.8347 53.3352 26.5884 53.3386 26.335V13.362C53.3371 13.2196 53.3643 13.0784 53.4186 12.9466C53.4728 12.8148 53.553 12.695 53.6544 12.5943C53.7559 12.4937 53.8766 12.4141 54.0094 12.3603C54.1422 12.3065 54.2846 12.2795 54.428 12.2809H63.8734C64.4299 12.2795 64.9813 12.3869 65.496 12.5969C66.0107 12.8069 66.4787 13.1155 66.8732 13.505C67.2678 13.8945 67.5811 14.3573 67.7954 14.867C68.0097 15.3767 68.1207 15.9233 68.1222 16.4755V26.335C68.1219 26.4942 68.0862 26.6514 68.0176 26.7953C67.949 26.9392 67.8492 27.0664 67.7253 27.1676C67.6015 27.2688 67.4566 27.3416 67.3011 27.3808C67.1456 27.42 66.9833 27.4247 66.8258 27.3944C66.5758 27.3508 66.3496 27.2201 66.1879 27.026C66.0262 26.8318 65.9395 26.5868 65.9433 26.335V16.4863C65.9433 15.9416 65.7252 15.4191 65.337 15.0339C64.9489 14.6487 64.4224 14.4323 63.8734 14.4323H61.8144V26.3242C61.8152 26.469 61.7867 26.6126 61.7306 26.7463C61.6744 26.88 61.5918 27.0011 61.4875 27.1025C61.3635 27.2246 61.2115 27.3149 61.0445 27.3658C60.8775 27.4166 60.7005 27.4265 60.5288 27.3944C60.2769 27.3531 60.0481 27.2234 59.8842 27.0291C59.7203 26.8347 59.6321 26.5884 59.6355 26.335V14.4323H55.5175V26.3242C55.5185 26.4832 55.4841 26.6405 55.4169 26.7848C55.3496 26.9292 55.251 27.057 55.1283 27.1592C55.0055 27.2614 54.8615 27.3355 54.7066 27.3762C54.5516 27.4168 54.3896 27.4231 54.2319 27.3944ZM69.9415 33.0485C69.6876 33.0069 69.4575 32.8757 69.2933 32.679C69.1292 32.4824 69.0421 32.2335 69.0482 31.9782C69.0494 31.6946 69.1629 31.4228 69.3641 31.2215C69.5653 31.0178 69.8394 30.9012 70.1267 30.8971C71.0527 30.8971 71.848 30.3134 72.1095 29.4377L73.2316 25.7296L69.5602 13.5458C69.5164 13.4095 69.5003 13.266 69.5128 13.1235C69.5254 12.981 69.5662 12.8424 69.6331 12.7157C69.7 12.589 69.7915 12.4768 69.9024 12.3854C70.0134 12.2941 70.1414 12.2255 70.2792 12.1836C70.5537 12.1081 70.8468 12.1401 71.0982 12.2729C71.3496 12.4056 71.54 12.6291 71.6301 12.8971L74.3537 21.9782L77.1209 12.8971C77.2516 12.3998 77.8072 12.0647 78.3737 12.1728L78.45 12.1836C79.0383 12.3674 79.3651 12.9836 79.1908 13.5566L75.4105 26.0539L74.2121 30.0539C73.9432 30.9147 73.4099 31.6707 72.6869 32.2161C71.9514 32.7634 71.0569 33.0593 70.1376 33.0593C70.0721 33.0618 70.0064 33.0582 69.9415 33.0485Z" fill="#FEFEFE"/>
<path fill-rule="evenodd" clip-rule="evenodd" d="M3.35548 25.027H5.49077C6.05997 25.027 6.60586 24.8026 7.00834 24.4032C7.41083 24.0038 7.63694 23.4621 7.63694 22.8972V16.6594C7.63838 16.3797 7.58429 16.1025 7.47775 15.8435C7.37122 15.5846 7.21433 15.349 7.01605 15.1503C6.81777 14.9515 6.58198 14.7934 6.32214 14.6851C6.0623 14.5768 5.7835 14.5203 5.50166 14.5188H3.35548V25.0053V25.027ZM2.01548 27.254C1.75389 27.2101 1.51675 27.0749 1.34691 26.8726C1.17708 26.6704 1.08576 26.4145 1.08946 26.1513V6.7783C1.08754 6.63008 1.11546 6.48297 1.17158 6.3456C1.2277 6.20822 1.3109 6.08335 1.41629 5.9783C1.54381 5.84691 1.7019 5.74862 1.87666 5.69207C2.05143 5.63552 2.23752 5.62244 2.41857 5.65398C2.96329 5.76209 3.35548 6.21614 3.35548 6.76749V12.281H5.49077C6.06967 12.2796 6.64317 12.3915 7.17842 12.6104C7.71367 12.8292 8.20015 13.1507 8.61 13.5564C9.01985 13.9621 9.34503 14.4441 9.56689 14.9747C9.78876 15.5053 9.90296 16.0741 9.90296 16.6486V22.8864C9.90008 24.0439 9.43545 25.1531 8.61067 25.9716C7.78589 26.7901 6.66807 27.2511 5.50166 27.254H2.22247C2.14966 27.2583 2.0766 27.2546 2.00459 27.2432L2.01548 27.254Z" fill="#333545"/>
<path fill-rule="evenodd" clip-rule="evenodd" d="M17.5834 14.4324C17.4611 14.4112 17.3372 14.4003 17.213 14.3999C16.9304 14.397 16.65 14.4502 16.3883 14.5562C16.1266 14.6622 15.8888 14.8189 15.6889 15.0173C15.4891 15.2156 15.3311 15.4515 15.2243 15.7112C15.1174 15.9709 15.0639 16.2492 15.0668 16.5297V23.027C15.0654 23.307 15.1199 23.5846 15.2272 23.8437C15.3346 24.1027 15.4926 24.338 15.6922 24.5361C15.8918 24.7341 16.129 24.891 16.39 24.9975C16.651 25.104 16.9308 25.1581 17.213 25.1567C17.7822 25.1567 18.3281 24.9323 18.7306 24.5329C19.1331 24.1335 19.3592 23.5918 19.3592 23.027V16.5405C19.3592 15.4918 18.6075 14.6161 17.5834 14.4324ZM16.4395 27.3513C15.4181 27.173 14.4929 26.6424 13.8272 25.8532C13.1614 25.0641 12.798 24.0669 12.8008 23.0378V16.5405C12.7989 15.9655 12.9126 15.3958 13.1352 14.8649C13.3578 14.334 13.6848 13.8525 14.0972 13.4486C14.5063 13.0428 14.9921 12.7211 15.5268 12.5022C16.0615 12.2833 16.6346 12.1714 17.213 12.1729C18.3803 12.1729 19.4998 12.6331 20.3252 13.4521C21.1506 14.2712 21.6143 15.3821 21.6143 16.5405V23.0378C21.6143 24.2053 21.1567 25.308 20.3179 26.1405C19.9105 26.5455 19.4265 26.8667 18.8936 27.0856C18.3608 27.3045 17.7897 27.4168 17.213 27.4161C16.9537 27.4172 16.6949 27.3955 16.4395 27.3513ZM29.2948 14.4432C29.1725 14.4219 29.0486 14.4111 28.9244 14.4107C28.6417 14.4079 28.3613 14.461 28.0996 14.567C27.8379 14.673 27.6002 14.8297 27.4003 15.0281C27.2004 15.2264 27.0425 15.4624 26.9356 15.7221C26.8288 15.9817 26.7753 16.26 26.7782 16.5405V23.0378C26.7768 23.3178 26.8313 23.5954 26.9386 23.8545C27.046 24.1135 27.204 24.3489 27.4036 24.5469C27.6032 24.745 27.8403 24.9018 28.1014 25.0083C28.3624 25.1148 28.6421 25.1689 28.9244 25.1675C29.2066 25.1689 29.4864 25.1148 29.7474 25.0083C30.0084 24.9018 30.2456 24.745 30.4452 24.5469C30.6448 24.3489 30.8028 24.1135 30.9101 23.8545C31.0175 23.5954 31.072 23.3178 31.0706 23.0378V16.5405C31.0706 15.5026 30.3189 14.627 29.2948 14.4432ZM28.1509 27.3513C27.1314 27.1707 26.2088 26.6392 25.5453 25.8502C24.8817 25.0613 24.5198 24.0654 24.5231 23.0378V16.5405C24.5248 15.9033 24.6666 15.2743 24.9386 14.6971C25.2107 14.12 25.6063 13.6087 26.098 13.199C26.5897 12.7893 27.1656 12.4911 27.7855 12.325C28.4054 12.159 29.0543 12.1292 29.687 12.2378C30.7086 12.4135 31.6349 12.9415 32.3025 13.7286C32.9702 14.5158 33.3364 15.5116 33.3366 16.5405V23.0378C33.3379 23.6153 33.223 24.1872 32.9985 24.72C32.774 25.2529 32.4444 25.7358 32.0293 26.1405C31.6218 26.5455 31.1378 26.8667 30.605 27.0856C30.0722 27.3045 29.5011 27.4168 28.9244 27.4161C28.6629 27.4161 28.4015 27.3945 28.1509 27.3513ZM37.1605 27.3945C36.8989 27.3507 36.6617 27.2154 36.4919 27.0132C36.3221 26.8109 36.2308 26.5551 36.2345 26.2918V6.77831C36.2345 6.47561 36.3434 6.18372 36.5613 5.97831C36.6898 5.85242 36.847 5.75917 37.0196 5.70647C37.1922 5.65377 37.3751 5.64318 37.5527 5.67561C38.0974 5.7621 38.5005 6.22696 38.5005 6.77831V18.3243L43.708 12.5297C43.9694 12.2486 44.3616 12.1189 44.7538 12.1837C44.9516 12.2166 45.1368 12.3014 45.2903 12.4293C45.4439 12.5573 45.56 12.7237 45.6268 12.9114C45.6935 13.099 45.7083 13.3009 45.6698 13.4962C45.6312 13.6914 45.5406 13.8728 45.4075 14.0216L41.4746 18.3783L45.5382 25.7621C45.6114 25.8866 45.6587 26.0244 45.6774 26.1674C45.6961 26.3103 45.6858 26.4556 45.6471 26.5945C45.605 26.7377 45.5341 26.871 45.4386 26.9862C45.3431 27.1014 45.225 27.1962 45.0915 27.2648C44.8609 27.3964 44.5906 27.4424 44.3289 27.3945C44.1662 27.3672 44.0115 27.3046 43.8759 27.2112C43.7403 27.1178 43.6272 26.9958 43.5445 26.854L39.8841 20.1729L38.4896 21.6972V26.2918C38.4896 26.59 38.3702 26.876 38.1577 27.0868C37.9453 27.2977 37.6571 27.4161 37.3566 27.4161C37.2803 27.4161 37.2149 27.4161 37.1387 27.3945H37.1605ZM87.0673 27.3837C86.4547 27.2819 85.8727 27.0456 85.3638 26.6921C84.8549 26.3386 84.432 25.8768 84.1258 25.3405C83.9762 25.0777 83.937 24.7669 84.0169 24.4756C84.1041 24.1945 84.2893 23.9567 84.5398 23.8053C84.7725 23.6792 85.042 23.6372 85.3024 23.6864C85.6293 23.7405 85.9234 23.9351 86.0868 24.227C86.381 24.7243 86.8494 25.0486 87.4268 25.1459C87.7245 25.1972 88.03 25.1811 88.3206 25.0987C88.6111 25.0163 88.8791 24.8698 89.1045 24.6702C89.5403 24.2702 89.7582 23.6972 89.7037 23.1351C89.6916 22.8469 89.6114 22.5656 89.4694 22.314C89.3275 22.0623 89.1278 21.8473 88.8867 21.6864L85.8363 19.5351C85.3393 19.1888 84.9254 18.7379 84.6241 18.2147C84.3228 17.6915 84.1415 17.1088 84.0932 16.508C84.0537 15.902 84.1539 15.2949 84.3861 14.733C84.6183 14.1711 84.9763 13.669 85.4332 13.2648C85.8788 12.8537 86.4112 12.5462 86.9917 12.3648C87.5721 12.1834 88.1859 12.1326 88.7886 12.2161C90.0741 12.4324 91.12 13.1675 91.7192 14.2053C91.8636 14.4647 91.9011 14.7695 91.8239 15.0557C91.7467 15.3419 91.5608 15.5873 91.3052 15.7405C91.0745 15.8721 90.8043 15.918 90.5426 15.8702C90.3798 15.8429 90.2251 15.7803 90.0896 15.6869C89.954 15.5934 89.8408 15.4715 89.7582 15.3297C89.6215 15.1003 89.4354 14.9038 89.2131 14.7543C88.9908 14.6047 88.738 14.5059 88.4727 14.4648C88.2012 14.416 87.9221 14.4307 87.6573 14.5077C87.3926 14.5846 87.1495 14.7217 86.9475 14.908C86.7502 15.0928 86.5962 15.3183 86.4964 15.5687C86.3967 15.819 86.3535 16.088 86.3701 16.3567C86.3919 16.8864 86.6969 17.4053 87.1545 17.708L90.2049 19.8161C90.7227 20.1759 91.1508 20.6483 91.4567 21.1973C91.7626 21.7462 91.938 22.3572 91.9697 22.9837C92.0202 23.6073 91.9234 24.2339 91.687 24.8138C91.4506 25.3937 91.0811 25.9109 90.608 26.3243C90.1477 26.7486 89.598 27.0658 88.9987 27.2528C88.3994 27.4398 87.7657 27.4919 87.1436 27.4053L87.0564 27.3837H87.0673ZM95.8154 27.4161C95.5538 27.3705 95.3166 27.2351 95.1453 27.0335C94.9741 26.832 94.8796 26.5771 94.8785 26.3134V6.79993C94.8771 6.65188 94.9054 6.50503 94.9618 6.36797C95.0182 6.23091 95.1016 6.10639 95.2071 6.0017C95.3126 5.897 95.4381 5.81424 95.5762 5.75825C95.7143 5.70226 95.8623 5.67417 96.0115 5.67561L96.2294 5.68642C96.7741 5.79453 97.1445 6.23777 97.1445 6.79993V12.3134H99.2907C99.8691 12.312 100.442 12.424 100.977 12.643C101.511 12.862 101.997 13.1836 102.406 13.5895C102.815 13.9953 103.139 14.4774 103.36 15.0079C103.581 15.5385 103.693 16.1071 103.692 16.681V26.3026C103.693 26.4659 103.658 26.6273 103.589 26.7755C103.52 26.9238 103.419 27.0551 103.293 27.1603C103.167 27.2655 103.02 27.342 102.861 27.3844C102.702 27.4267 102.536 27.4339 102.374 27.4053C101.829 27.308 101.437 26.8432 101.437 26.2918V16.6702C101.437 16.391 101.381 16.1146 101.273 15.8568C101.165 15.599 101.007 15.365 100.808 15.1681C100.608 14.9712 100.372 14.8153 100.111 14.7095C99.8509 14.6036 99.572 14.5499 99.2907 14.5513H97.1445V26.3026C97.1458 26.467 97.1103 26.6295 97.0408 26.7787C96.9712 26.9278 96.8693 27.0598 96.7422 27.1652C96.6152 27.2706 96.4662 27.3468 96.3059 27.3883C96.1457 27.4298 95.9782 27.4357 95.8154 27.4053V27.4161ZM111.373 14.454C111.064 14.3984 110.747 14.411 110.443 14.4909C110.14 14.5708 109.858 14.716 109.618 14.9162C109.378 15.1165 109.185 15.3668 109.053 15.6494C108.921 15.932 108.854 16.2399 108.856 16.5513V23.0486C108.854 23.3277 108.909 23.6044 109.015 23.8628C109.122 24.1211 109.279 24.356 109.477 24.5539C109.676 24.7518 109.912 24.9088 110.172 25.016C110.431 25.1231 110.71 25.1783 110.991 25.1783C111.558 25.1783 112.102 24.9621 112.506 24.5621C112.707 24.3644 112.867 24.1287 112.976 23.8687C113.084 23.6088 113.139 23.3299 113.137 23.0486V16.5405C113.137 15.5026 112.397 14.6161 111.362 14.4432L111.373 14.454ZM110.218 27.3405C109.199 27.1622 108.277 26.6328 107.613 25.8457C106.949 25.0585 106.587 24.0641 106.59 23.0378V16.5405C106.59 15.9024 106.731 15.2721 107.002 14.6937C107.273 14.1152 107.669 13.6026 108.161 13.1917C108.653 12.7808 109.229 12.4816 109.85 12.3149C110.47 12.1483 111.12 12.1183 111.754 12.227C112.777 12.403 113.705 12.9326 114.373 13.722C115.041 14.5114 115.406 15.5097 115.403 16.5405V23.0378C115.404 23.6135 115.289 24.1836 115.064 24.7146C114.84 25.2455 114.51 25.7266 114.096 26.1297C113.596 26.6276 112.983 26.9979 112.307 27.2087C111.632 27.4196 110.915 27.4648 110.218 27.3405Z" fill="#333545"/>
<path fill-rule="evenodd" clip-rule="evenodd" d="M132.802 13.557C132.839 13.4197 132.848 13.2764 132.83 13.1354C132.811 12.9944 132.764 12.8585 132.693 12.7354C132.61 12.6041 132.502 12.4906 132.375 12.4015C132.248 12.3124 132.104 12.2494 131.952 12.2164C131.671 12.1638 131.38 12.2194 131.139 12.3721C130.899 12.5248 130.725 12.763 130.655 13.0381C130.655 13.0921 129.435 17.9678 128.477 21.6759L128.455 21.7516L128.433 21.6759L126.254 13.0489C126.212 12.8383 126.106 12.6455 125.95 12.4967C125.794 12.3478 125.596 12.25 125.383 12.2164C125.318 12.2038 125.252 12.1966 125.186 12.1948C124.685 12.1948 124.25 12.5408 124.108 13.0381C124.097 13.0921 122.877 17.9678 121.929 21.6759L121.907 21.7516L121.886 21.6759C120.959 17.9678 119.707 13.0921 119.707 13.0381C119.655 12.8311 119.545 12.6434 119.388 12.4976C119.231 12.3518 119.036 12.2541 118.824 12.2164C118.643 12.1846 118.456 12.198 118.281 12.2555C118.107 12.3129 117.949 12.4126 117.823 12.5455C117.696 12.6785 117.605 12.8405 117.557 13.0171C117.51 13.1936 117.507 13.3792 117.55 13.557L120.829 26.5624C120.891 26.8007 121.03 27.0123 121.225 27.1646C121.419 27.3169 121.659 27.4016 121.907 27.4056C122.441 27.4056 122.866 27.0597 122.975 26.5624L125.154 17.9246L125.186 17.8489L125.208 17.9246C126.167 21.6759 127.387 26.5732 127.387 26.5732C127.452 26.8069 127.591 27.0138 127.783 27.1636C127.975 27.3134 128.211 27.3982 128.455 27.4056C128.706 27.4134 128.952 27.3331 129.149 27.1789C129.346 27.0247 129.482 26.8064 129.533 26.5624L132.802 13.557Z" fill="#333545"/>
</svg>
