<svg width="85" height="28" viewBox="0 0 85 28" fill="none" xmlns="http://www.w3.org/2000/svg">
<g clip-path="url(#clip0_105_117)">
<path d="M36.2463 14.3593C36.2463 18.2458 33.1612 21.1098 29.375 21.1098C25.5888 21.1098 22.5037 18.2458 22.5037 14.3593C22.5037 10.4454 25.5888 7.60889 29.375 7.60889C33.1612 7.60889 36.2463 10.4454 36.2463 14.3593ZM33.2384 14.3593C33.2384 11.9306 31.4503 10.2689 29.375 10.2689C27.2997 10.2689 25.5116 11.9306 25.5116 14.3593C25.5116 16.7637 27.2997 18.4498 29.375 18.4498C31.4503 18.4498 33.2384 16.7606 33.2384 14.3593Z" fill="#EA4335"/>
<path d="M51.0698 14.3593C51.0698 18.2458 47.9846 21.1098 44.1985 21.1098C40.4123 21.1098 37.3271 18.2458 37.3271 14.3593C37.3271 10.4485 40.4123 7.60889 44.1985 7.60889C47.9846 7.60889 51.0698 10.4454 51.0698 14.3593ZM48.0619 14.3593C48.0619 11.9306 46.2738 10.2689 44.1985 10.2689C42.1232 10.2689 40.3351 11.9306 40.3351 14.3593C40.3351 16.7637 42.1232 18.4498 44.1985 18.4498C46.2738 18.4498 48.0619 16.7606 48.0619 14.3593Z" fill="#FBBC05"/>
<path d="M65.2757 8.01671V20.1358C65.2757 25.1211 62.2925 27.1571 58.7657 27.1571C55.4459 27.1571 53.4478 24.9689 52.6942 23.1793L55.3131 22.105C55.7794 23.2037 56.922 24.5002 58.7626 24.5002C61.0201 24.5002 62.4191 23.1276 62.4191 20.5437V19.5728H62.3141C61.6409 20.3915 60.3438 21.1067 58.707 21.1067C55.2822 21.1067 52.1445 18.1667 52.1445 14.3837C52.1445 10.5732 55.2822 7.60889 58.707 7.60889C60.3407 7.60889 61.6378 8.3241 62.3141 9.11845H62.4191V8.01976H65.2757V8.01671ZM62.6322 14.3837C62.6322 12.0067 61.0232 10.2689 58.9757 10.2689C56.9004 10.2689 55.1617 12.0067 55.1617 14.3837C55.1617 16.7363 56.9004 18.4498 58.9757 18.4498C61.0232 18.4498 62.6322 16.7363 62.6322 14.3837Z" fill="#4285F4"/>
<path d="M69.9853 0.913086V20.6957H67.0515V0.913086H69.9853Z" fill="#34A853"/>
<path d="M81.418 16.5807L83.7527 18.1146C82.9991 19.2133 81.1833 21.1063 78.0456 21.1063C74.1544 21.1063 71.2484 18.142 71.2484 14.3559C71.2484 10.3416 74.1791 7.60547 77.709 7.60547C81.2636 7.60547 83.0022 10.3933 83.5705 11.8998L83.8824 12.6668L74.7258 16.4042C75.4268 17.7585 76.5169 18.4494 78.0456 18.4494C79.5774 18.4494 80.6397 17.7068 81.418 16.5807ZM74.2316 14.152L80.3525 11.6472C80.0159 10.8042 79.003 10.2168 77.8109 10.2168C76.2822 10.2168 74.1544 11.5468 74.2316 14.152Z" fill="#EA4335"/>
<path d="M11.3984 12.6031V9.73915H21.1912C21.2869 10.2383 21.3364 10.8287 21.3364 11.4678C21.3364 13.6165 20.7403 16.2735 18.8194 18.1665C16.9511 20.0839 14.5639 21.1065 11.4015 21.1065C5.54003 21.1065 0.611206 16.4013 0.611206 10.6248C0.611206 4.84828 5.54003 0.143066 11.4015 0.143066C14.6441 0.143066 16.9541 1.39698 18.6897 3.03133L16.6391 5.0522C15.3946 3.90176 13.7084 3.00698 11.3984 3.00698C7.11812 3.00698 3.77047 6.40654 3.77047 10.6248C3.77047 14.8431 7.11812 18.2426 11.3984 18.2426C14.1747 18.2426 15.7559 17.1439 16.7689 16.1457C17.5903 15.3361 18.1308 14.1796 18.3439 12.6L11.3984 12.6031Z" fill="#4285F4"/>
</g>
<defs>
<clipPath id="clip0_105_117">
<rect width="84" height="28" fill="white" transform="translate(0.5)"/>
</clipPath>
</defs>
</svg>
