<svg width="48" height="48" viewBox="0 0 48 48" fill="none" xmlns="http://www.w3.org/2000/svg">
<path d="M20 21.3335H10.6667C10.3131 21.3335 9.97395 21.193 9.7239 20.943C9.47385 20.6929 9.33337 20.3538 9.33337 20.0002V10.6668C9.33337 10.3132 9.47385 9.97407 9.7239 9.72402C9.97395 9.47397 10.3131 9.3335 10.6667 9.3335H20C20.3537 9.3335 20.6928 9.47397 20.9429 9.72402C21.1929 9.97407 21.3334 10.3132 21.3334 10.6668V20.0002C21.3334 20.3538 21.1929 20.6929 20.9429 20.943C20.6928 21.193 20.3537 21.3335 20 21.3335Z" fill="#8C30F5"/>
<path d="M20 38.667H10.6667C10.3131 38.667 9.97395 38.5265 9.7239 38.2765C9.47385 38.0264 9.33337 37.6873 9.33337 37.3337V28.0003C9.33337 27.6467 9.47385 27.3076 9.7239 27.0575C9.97395 26.8075 10.3131 26.667 10.6667 26.667H20C20.3537 26.667 20.6928 26.8075 20.9429 27.0575C21.1929 27.3076 21.3334 27.6467 21.3334 28.0003V37.3337C21.3334 37.6873 21.1929 38.0264 20.9429 38.2765C20.6928 38.5265 20.3537 38.667 20 38.667Z" fill="#8C30F5"/>
<path d="M25.3334 10.667H38.6667V13.3337H25.3334V10.667Z" fill="#2EC5CE"/>
<path d="M38.6667 28H25.3334V30.6667H38.6667V28Z" fill="#2EC5CE"/>
<path d="M38.6667 34.667H25.3334V37.3337H38.6667V34.667Z" fill="#D6B1FF"/>
<path d="M38.6667 17.3335H25.3334V20.0002H38.6667V17.3335Z" fill="#D6B1FF"/>
</svg>
