<svg width="32" height="32" viewBox="0 0 32 32" fill="none" xmlns="http://www.w3.org/2000/svg">
<path d="M6.66671 1.3335H2.66671C2.31309 1.3335 1.97395 1.47397 1.7239 1.72402C1.47385 1.97407 1.33337 2.31321 1.33337 2.66683V29.3335C1.33337 29.6871 1.47385 30.0263 1.7239 30.2763C1.97395 30.5264 2.31309 30.6668 2.66671 30.6668H6.66671V1.3335Z" fill="#D6B1FF"/>
<path d="M9.33337 30.6668H22.6667V1.3335H9.33337V30.6668ZM16 25.3335C15.6464 25.3335 15.3073 25.193 15.0572 24.943C14.8072 24.6929 14.6667 24.3538 14.6667 24.0002C14.6667 23.6465 14.8072 23.3074 15.0572 23.0574C15.3073 22.8073 15.6464 22.6668 16 22.6668C16.3537 22.6668 16.6928 22.8073 16.9429 23.0574C17.1929 23.3074 17.3334 23.6465 17.3334 24.0002C17.3334 24.3538 17.1929 24.6929 16.9429 24.943C16.6928 25.193 16.3537 25.3335 16 25.3335ZM16 6.66683C16.3537 6.66683 16.6928 6.8073 16.9429 7.05735C17.1929 7.3074 17.3334 7.64654 17.3334 8.00016C17.3334 8.35378 17.1929 8.69292 16.9429 8.94297C16.6928 9.19302 16.3537 9.3335 16 9.3335C15.6464 9.3335 15.3073 9.19302 15.0572 8.94297C14.8072 8.69292 14.6667 8.35378 14.6667 8.00016C14.6667 7.64654 14.8072 7.3074 15.0572 7.05735C15.3073 6.8073 15.6464 6.66683 16 6.66683ZM16 14.6668C16.3537 14.6668 16.6928 14.8073 16.9429 15.0574C17.1929 15.3074 17.3334 15.6465 17.3334 16.0002C17.3334 16.3538 17.1929 16.6929 16.9429 16.943C16.6928 17.193 16.3537 17.3335 16 17.3335C15.6464 17.3335 15.3073 17.193 15.0572 16.943C14.8072 16.6929 14.6667 16.3538 14.6667 16.0002C14.6667 15.6465 14.8072 15.3074 15.0572 15.0574C15.3073 14.8073 15.6464 14.6668 16 14.6668Z" fill="#8C30F5"/>
<path d="M29.3334 1.3335H25.3334V30.6668H29.3334C29.687 30.6668 30.0261 30.5264 30.2762 30.2763C30.5262 30.0263 30.6667 29.6871 30.6667 29.3335V2.66683C30.6667 2.31321 30.5262 1.97407 30.2762 1.72402C30.0261 1.47397 29.687 1.3335 29.3334 1.3335Z" fill="#2EC5CE"/>
</svg>
